<svg width="40" height="44" viewBox="0 0 40 44" fill="none" xmlns="http://www.w3.org/2000/svg">
<path d="M28.6426 20.6196C28.8727 20.8745 29 21.2056 29 21.549C29 21.8924 28.8727 22.2236 28.6426 22.4785C27.186 24.0461 23.8704 27.098 20 27.098C16.1296 27.098 12.814 24.0461 11.3574 22.4785C11.1273 22.2236 11 21.8924 11 21.549C11 21.2056 11.1273 20.8745 11.3574 20.6196C12.814 19.052 16.1296 16 20 16C23.8704 16 27.186 19.052 28.6426 20.6196Z" stroke="#535F5F" stroke-linecap="round" stroke-linejoin="round"/>
<path d="M20.0001 24.3236C21.5324 24.3236 22.7746 23.0814 22.7746 21.549C22.7746 20.0167 21.5324 18.7745 20.0001 18.7745C18.4678 18.7745 17.2256 20.0167 17.2256 21.549C17.2256 23.0814 18.4678 24.3236 20.0001 24.3236Z" stroke="#535F5F" stroke-linecap="round" stroke-linejoin="round"/>
</svg>
