<svg width="44" height="44" viewBox="0 0 44 44" fill="none" xmlns="http://www.w3.org/2000/svg">
<path d="M10 1C11.78 1 13.5201 1.52784 15.0001 2.51677C16.4802 3.5057 17.6337 4.91131 18.3149 6.55584C18.9961 8.20038 19.1743 10.01 18.8271 11.7558C18.4798 13.5016 17.6226 15.1053 16.364 16.3639C15.1053 17.6226 13.5016 18.4798 11.7558 18.8271C10.01 19.1743 8.20039 18.9961 6.55585 18.3149C4.91132 17.6337 3.50571 16.4802 2.51678 15.0001C1.52785 13.5201 1.00001 11.78 1.00001 9.99999C0.997153 7.4218 1.98911 4.94192 3.76924 3.07692" stroke="#B35200" stroke-width="1.5" stroke-linecap="round" stroke-linejoin="round"/>
<path d="M1 3.76921L3.76923 3.0769L4.46154 5.84613" stroke="#B35200" stroke-width="1.5" stroke-linecap="round" stroke-linejoin="round"/>
<path d="M10 5.15381V10.6923L13.6 12.4923" stroke="#B35200" stroke-width="1.5" stroke-linecap="round" stroke-linejoin="round"/>
</svg>
